<svg width="24" height="25" viewBox="0 0 24 25" fill="none" xmlns="http://www.w3.org/2000/svg">
<g id="grill-hot-alt 1" clip-path="url(#clip0_11_219)">
<path id="Vector" d="M16.001 4V1C16.001 0.724 16.225 0.5 16.501 0.5C16.777 0.5 17.001 0.724 17.001 1V4C17.001 4.276 16.777 4.5 16.501 4.5C16.225 4.5 16.001 4.276 16.001 4ZM12.001 4.5C12.277 4.5 12.501 4.276 12.501 4V1C12.501 0.724 12.277 0.5 12.001 0.5C11.725 0.5 11.501 0.724 11.501 1V4C11.501 4.276 11.725 4.5 12.001 4.5ZM23.933 9.692C23.231 12.755 20.216 16.175 17.526 17.96L19.963 23.808C20.068 24.063 19.948 24.356 19.693 24.462C19.631 24.488 19.565 24.501 19.501 24.501C19.306 24.501 19.119 24.385 19.039 24.193L18.334 22.501H10.502C10.226 22.501 10.002 22.277 10.002 22.001C10.002 21.725 10.226 21.501 10.502 21.501H17.917L16.656 18.475C16.606 18.491 16.554 18.501 16.5 18.501H7.33403L6.77203 19.849C7.50703 20.285 8.00103 21.086 8.00103 22.001C8.00103 23.379 6.88003 24.501 5.50103 24.501C4.12203 24.501 3.00103 23.379 3.00103 22.001C3.00103 20.623 4.12203 19.501 5.50103 19.501C5.61103 19.501 5.71803 19.509 5.82403 19.523L6.37003 18.211C3.49903 16.438 0.77703 12.786 0.0670298 9.692C-0.11297 8.909 0.0710297 8.101 0.57003 7.475C1.06303 6.856 1.80003 6.5 2.59203 6.5H21.406C22.198 6.5 22.935 6.855 23.428 7.475C23.927 8.101 24.111 8.909 23.931 9.692H23.933ZM5.50103 20.5C4.67403 20.5 4.00103 21.173 4.00103 22C4.00103 22.827 4.67403 23.5 5.50103 23.5C6.32803 23.5 7.00103 22.827 7.00103 22C7.00103 21.173 6.32803 20.5 5.50103 20.5ZM22.647 8.098C22.344 7.718 21.892 7.5 21.407 7.5H2.59303C2.10803 7.5 1.65503 7.718 1.35303 8.098C1.04403 8.484 0.93103 8.984 1.04203 9.468C1.71903 12.418 4.37903 15.919 7.13203 17.5H16.369C19.018 15.983 22.258 12.522 22.958 9.468C23.069 8.984 22.956 8.484 22.647 8.098ZM7.50103 4.5C7.77703 4.5 8.00103 4.276 8.00103 4V1C8.00103 0.724 7.77703 0.5 7.50103 0.5C7.22503 0.5 7.00103 0.724 7.00103 1V4C7.00103 4.276 7.22503 4.5 7.50103 4.5Z" fill="black"/>
</g>
<defs>
<clipPath id="clip0_11_219">
<rect width="24" height="24" fill="white" transform="translate(0 0.5)"/>
</clipPath>
</defs>
</svg>
